<?xml version="1.0" encoding="utf-8"?>
<!-- Generator: Adobe Illustrator 22.0.1, SVG Export Plug-In . SVG Version: 6.00 Build 0)  -->
<svg version="1.1" id="Layer_1" xmlns="http://www.w3.org/2000/svg" xmlns:xlink="http://www.w3.org/1999/xlink" x="0px" y="0px"
	 viewBox="0 0 52.5 52.5" style="enable-background:new 0 0 52.5 52.5;" xml:space="preserve">
<style type="text/css">
	.st0{fill:#2B3033;}
</style>
<g transform="translate(-20658.223 -16714)">
	<path class="st0" d="M20710.7,16749v-13.5l-9.3-13.9h-7.2v-3.3h-13.2c-2.4-2.7-5.9-4.4-9.8-4.4c-7.2,0-13.1,5.9-13.1,13.1v32.8h6.7
		c0.5,2.5,2.7,4.4,5.4,4.4c2.7,0,4.9-1.9,5.4-4.4h18.8c0.5,2.5,2.7,4.4,5.4,4.4c2.7,0,4.8-1.9,5.4-4.4h5.6L20710.7,16749
		L20710.7,16749z M20694.3,16723.8h6l8.2,12.4v12.8h-14.2V16723.8z M20671.4,16716.2c3,0,5.8,1.2,7.7,3.2c2,2,3.2,4.7,3.2,7.7
		c0,6-4.9,10.9-10.9,10.9c-6,0-10.9-4.9-10.9-10.9C20660.4,16721.1,20665.3,16716.2,20671.4,16716.2z M20660.4,16734.4
		c2.3,3.5,6.4,5.9,10.9,5.9c7.2,0,13.1-5.9,13.1-13.1c0-2.4-0.6-4.6-1.8-6.6h9.4v28.4h-31.7V16734.4z M20670.3,16762.2
		c-1.8,0-3.3-1.5-3.3-3.3c0-1.8,1.5-3.3,3.3-3.3c1.8,0,3.3,1.5,3.3,3.3C20673.5,16760.7,20672.1,16762.2,20670.3,16762.2z
		 M20699.8,16762.2c-1.8,0-3.3-1.5-3.3-3.3c0-1.8,1.5-3.3,3.3-3.3s3.3,1.5,3.3,3.3C20703.1,16760.7,20701.6,16762.2,20699.8,16762.2
		z M20708.6,16757.8h-3.4c-0.5-2.5-2.7-4.4-5.4-4.4s-4.8,1.9-5.4,4.4h-18.8c-0.5-2.5-2.7-4.4-5.4-4.4c-2.6,0-4.8,1.9-5.4,4.4h-4.5
		v-6.6h48.2V16757.8z"/>
	<rect x="20696.5" y="16739.2" class="st0" width="3.3" height="2.2"/>
	<rect x="20698.7" y="16757.8" class="st0" width="2.2" height="2.2"/>
	<rect x="20669.2" y="16757.8" class="st0" width="2.2" height="2.2"/>
	<rect x="20662.6" y="16764.3" class="st0" width="48.1" height="2.2"/>
	<rect x="20658.2" y="16764.3" class="st0" width="2.2" height="2.2"/>
	<path class="st0" d="M20676.8,16728.2h-6.6v-9.8h2.2v7.7h4.4V16728.2z"/>
</g>
</svg>
